<svg width="1200" height="630" viewBox="0 0 1200 630" fill="none" xmlns="http://www.w3.org/2000/svg">
  <rect width="1200" height="630" rx="24" fill="#0B0F17"/>
  <defs>
    <pattern id="gridAi" width="40" height="40" patternUnits="userSpaceOnUse">
      <path d="M 40 0 L 0 0 0 40" fill="none" stroke="#1E293B" stroke-width="1" stroke-opacity="0.6"/>
    </pattern>
    <linearGradient id="cardBgAi" x1="0" y1="0" x2="0" y2="1">
      <stop offset="0%" stop-color="#1E293B"/>
      <stop offset="100%" stop-color="#0F172A"/>
    </linearGradient>
  </defs>
  <rect width="1200" height="630" fill="url(#gridAi)" opacity="0.8"/>
  <circle cx="200" cy="180" r="180" fill="#00E785" fill-opacity="0.12" filter="blur(80px)"/>
  <circle cx="1000" cy="450" r="180" fill="#00E785" fill-opacity="0.1" filter="blur(90px)"/>

  <!-- Brand Badges -->
  <rect x="60" y="50" width="180" height="42" rx="21" fill="#1E293B" stroke="#334155" stroke-width="1.5"/>
  <circle cx="82" cy="71" r="10" fill="#00E785"/>
  <text x="102" y="77" fill="#FFFFFF" font-family="system-ui, -apple-system, sans-serif" font-size="15" font-weight="800" letter-spacing="1">FIZMOH CLOUD</text>

  <rect x="255" y="50" width="250" height="42" rx="21" fill="#00E785" fill-opacity="0.15" stroke="#00E785" stroke-width="1.5"/>
  <text x="275" y="76" fill="#00E785" font-family="system-ui, -apple-system, sans-serif" font-size="14" font-weight="700">Arabic &amp; English Bilingual AI</text>

  <!-- Main Title -->
  <text x="60" y="145" fill="#FFFFFF" font-family="system-ui, -apple-system, sans-serif" font-size="34" font-weight="900" letter-spacing="-0.5">Visual No-Code Botflow Studio &amp; AI Engine</text>
  <text x="60" y="185" fill="#94A3B8" font-family="system-ui, -apple-system, sans-serif" font-size="18" font-weight="500">Drag-and-Drop Canvas · Gulf Dialect NLP · Vision OCR Receipt Match · Human Handover</text>

  <!-- Card 1: Botflow Canvas -->
  <rect x="60" y="240" width="330" height="320" rx="16" fill="url(#cardBgAi)" stroke="#334155" stroke-width="2"/>
  <text x="84" y="280" fill="#FFFFFF" font-family="system-ui, -apple-system, sans-serif" font-size="20" font-weight="800">Visual Flow Canvas</text>
  <rect x="84" y="305" width="282" height="44" rx="8" fill="#0F172A" stroke="#334155"/>
  <text x="100" y="333" fill="#E2E8F0" font-family="system-ui, -apple-system, sans-serif" font-size="13" font-weight="600">🔀 Decision Tree &amp; Menu Nodes</text>
  <rect x="84" y="360" width="282" height="44" rx="8" fill="#0F172A" stroke="#334155"/>
  <text x="100" y="388" fill="#E2E8F0" font-family="system-ui, -apple-system, sans-serif" font-size="13" font-weight="600">📋 25+ Ready Industry Templates</text>
  <rect x="84" y="415" width="282" height="44" rx="8" fill="#0F172A" stroke="#334155"/>
  <text x="100" y="443" fill="#E2E8F0" font-family="system-ui, -apple-system, sans-serif" font-size="13" font-weight="600">📱 Live Interactive Simulator</text>
  <rect x="84" y="470" width="282" height="44" rx="8" fill="#0F172A" stroke="#334155"/>
  <text x="100" y="498" fill="#00E785" font-family="system-ui, -apple-system, sans-serif" font-size="13" font-weight="700">✓ Zero Coding Required</text>

  <!-- Card 2: AI Core -->
  <rect x="435" y="220" width="330" height="350" rx="18" fill="#0F172A" stroke="#00E785" stroke-width="2.5"/>
  <text x="459" y="265" fill="#FFFFFF" font-family="system-ui, -apple-system, sans-serif" font-size="22" font-weight="900">Conversational AI</text>
  <rect x="459" y="295" width="282" height="48" rx="8" fill="#1E293B" stroke="#334155"/>
  <text x="475" y="325" fill="#00E785" font-family="system-ui, -apple-system, sans-serif" font-size="13" font-weight="700">🧠 Gulf Arabic Dialect Fine-Tuning</text>
  <rect x="459" y="355" width="282" height="48" rx="8" fill="#1E293B" stroke="#334155"/>
  <text x="475" y="385" fill="#E2E8F0" font-family="system-ui, -apple-system, sans-serif" font-size="13" font-weight="600">📚 Grounded Company Knowledge Base</text>
  <rect x="459" y="415" width="282" height="48" rx="8" fill="#1E293B" stroke="#334155"/>
  <text x="475" y="445" fill="#E2E8F0" font-family="system-ui, -apple-system, sans-serif" font-size="13" font-weight="600">📸 Vision AI OCR Slip Extraction</text>
  <rect x="459" y="475" width="282" height="48" rx="8" fill="#1E293B" stroke="#334155"/>
  <text x="475" y="505" fill="#E2E8F0" font-family="system-ui, -apple-system, sans-serif" font-size="13" font-weight="600">💡 1-Click Smart Copilot Replies</text>

  <!-- Card 3: Human Collaboration -->
  <rect x="810" y="240" width="330" height="320" rx="16" fill="url(#cardBgAi)" stroke="#334155" stroke-width="2"/>
  <text x="834" y="280" fill="#FFFFFF" font-family="system-ui, -apple-system, sans-serif" font-size="20" font-weight="800">Human Escalation</text>
  <rect x="834" y="305" width="282" height="44" rx="8" fill="#0F172A" stroke="#334155"/>
  <text x="850" y="333" fill="#E2E8F0" font-family="system-ui, -apple-system, sans-serif" font-size="13" font-weight="600">🤝 Seamless Bot-to-Agent Handover</text>
  <rect x="834" y="360" width="282" height="44" rx="8" fill="#0F172A" stroke="#334155"/>
  <text x="850" y="388" fill="#E2E8F0" font-family="system-ui, -apple-system, sans-serif" font-size="13" font-weight="600">🏢 Department Round-Robin</text>
  <rect x="834" y="415" width="282" height="44" rx="8" fill="#0F172A" stroke="#334155"/>
  <text x="850" y="443" fill="#E2E8F0" font-family="system-ui, -apple-system, sans-serif" font-size="13" font-weight="600">⏱️ 24-Hour Meta SLA Warning</text>
  <rect x="834" y="470" width="282" height="44" rx="8" fill="#0F172A" stroke="#334155"/>
  <text x="850" y="498" fill="#00E785" font-family="system-ui, -apple-system, sans-serif" font-size="13" font-weight="700">⚡ 70% Ticket Resolution Lift</text>
</svg>
