<svg width="1200" height="630" viewBox="0 0 1200 630" fill="none" xmlns="http://www.w3.org/2000/svg">
  <rect width="1200" height="630" rx="24" fill="#0B0F17"/>
  <defs>
    <pattern id="gridEcom" width="40" height="40" patternUnits="userSpaceOnUse">
      <path d="M 40 0 L 0 0 0 40" fill="none" stroke="#1E293B" stroke-width="1" stroke-opacity="0.6"/>
    </pattern>
    <linearGradient id="cardBgEcom" x1="0" y1="0" x2="0" y2="1">
      <stop offset="0%" stop-color="#1E293B"/>
      <stop offset="100%" stop-color="#0F172A"/>
    </linearGradient>
  </defs>
  <rect width="1200" height="630" fill="url(#gridEcom)" opacity="0.8"/>
  <circle cx="200" cy="200" r="180" fill="#00E785" fill-opacity="0.12" filter="blur(80px)"/>
  <circle cx="1000" cy="400" r="180" fill="#6366F1" fill-opacity="0.12" filter="blur(90px)"/>

  <!-- Brand Badges -->
  <rect x="60" y="50" width="180" height="42" rx="21" fill="#1E293B" stroke="#334155" stroke-width="1.5"/>
  <circle cx="82" cy="71" r="10" fill="#00E785"/>
  <text x="102" y="77" fill="#FFFFFF" font-family="system-ui, -apple-system, sans-serif" font-size="15" font-weight="800" letter-spacing="1">FIZMOH CLOUD</text>

  <rect x="255" y="50" width="260" height="42" rx="21" fill="#00E785" fill-opacity="0.15" stroke="#00E785" stroke-width="1.5"/>
  <text x="275" y="76" fill="#00E785" font-family="system-ui, -apple-system, sans-serif" font-size="14" font-weight="700">WooCommerce &amp; Shopify</text>

  <!-- Main Title -->
  <text x="60" y="145" fill="#FFFFFF" font-family="system-ui, -apple-system, sans-serif" font-size="34" font-weight="900" letter-spacing="-0.5">WooCommerce &amp; Shopify WhatsApp Integration</text>
  <text x="60" y="185" fill="#94A3B8" font-family="system-ui, -apple-system, sans-serif" font-size="18" font-weight="500">Real-Time Cart Recovery · Interactive WhatsApp Action Buttons · HPOS Ready · Order &amp; Tracking Sync</text>

  <!-- Card 1: Abandoned Cart Typing Capture -->
  <rect x="60" y="240" width="330" height="320" rx="16" fill="url(#cardBgEcom)" stroke="#334155" stroke-width="2"/>
  <rect x="84" y="264" width="48" height="48" rx="12" fill="#00E785" fill-opacity="0.2"/>
  <text x="96" y="296" fill="#00E785" font-family="system-ui, -apple-system, sans-serif" font-size="22" font-weight="900">🛒</text>
  <text x="144" y="294" fill="#FFFFFF" font-family="system-ui, -apple-system, sans-serif" font-size="19" font-weight="800">Cart Recovery</text>
  
  <rect x="84" y="325" width="282" height="48" rx="8" fill="#0F172A" stroke="#334155"/>
  <text x="100" y="355" fill="#E2E8F0" font-family="system-ui, -apple-system, sans-serif" font-size="13" font-weight="600">⚡ Real-Time Typing Capture</text>
  
  <rect x="84" y="385" width="282" height="48" rx="8" fill="#0F172A" stroke="#334155"/>
  <text x="100" y="415" fill="#E2E8F0" font-family="system-ui, -apple-system, sans-serif" font-size="13" font-weight="600">⏱ 15m · 4h (10% Off) · 24h</text>
  
  <rect x="84" y="445" width="282" height="48" rx="8" fill="#0F172A" stroke="#334155"/>
  <text x="100" y="475" fill="#E2E8F0" font-family="system-ui, -apple-system, sans-serif" font-size="13" font-weight="600">🔗 1-Click Cart Restoration</text>

  <!-- Card 2: Interactive WhatsApp Buttons -->
  <rect x="420" y="240" width="330" height="320" rx="16" fill="url(#cardBgEcom)" stroke="#00E785" stroke-width="2"/>
  <rect x="444" y="264" width="48" height="48" rx="12" fill="#00E785" fill-opacity="0.2"/>
  <text x="456" y="296" fill="#00E785" font-family="system-ui, -apple-system, sans-serif" font-size="22" font-weight="900">🔘</text>
  <text x="504" y="294" fill="#FFFFFF" font-family="system-ui, -apple-system, sans-serif" font-size="19" font-weight="800">Button Templates</text>
  
  <rect x="444" y="325" width="282" height="48" rx="8" fill="#0F172A" stroke="#00E785"/>
  <text x="460" y="355" fill="#00E785" font-family="system-ui, -apple-system, sans-serif" font-size="13" font-weight="700">🔘 [Complete Order] URL CTA</text>
  
  <rect x="444" y="385" width="282" height="48" rx="8" fill="#0F172A" stroke="#334155"/>
  <text x="460" y="415" fill="#E2E8F0" font-family="system-ui, -apple-system, sans-serif" font-size="13" font-weight="600">🔘 [Claim 10% Off] Coupon</text>
  
  <rect x="444" y="445" width="282" height="48" rx="8" fill="#0F172A" stroke="#334155"/>
  <text x="460" y="475" fill="#E2E8F0" font-family="system-ui, -apple-system, sans-serif" font-size="13" font-weight="600">🔘 [Track Order] Carrier Link</text>

  <!-- Card 3: HPOS Plugin & Shipment Sync -->
  <rect x="780" y="240" width="360" height="320" rx="16" fill="url(#cardBgEcom)" stroke="#334155" stroke-width="2"/>
  <rect x="804" y="264" width="48" height="48" rx="12" fill="#6366F1" fill-opacity="0.2"/>
  <text x="816" y="296" fill="#818CF8" font-family="system-ui, -apple-system, sans-serif" font-size="22" font-weight="900">📦</text>
  <text x="864" y="294" fill="#FFFFFF" font-family="system-ui, -apple-system, sans-serif" font-size="19" font-weight="800">WooCommerce Plugin</text>
  
  <rect x="804" y="325" width="312" height="48" rx="8" fill="#0F172A" stroke="#334155"/>
  <text x="820" y="355" fill="#E2E8F0" font-family="system-ui, -apple-system, sans-serif" font-size="13" font-weight="600">🚀 Native HPOS Compatibility</text>
  
  <rect x="804" y="385" width="312" height="48" rx="8" fill="#0F172A" stroke="#334155"/>
  <text x="820" y="415" fill="#E2E8F0" font-family="system-ui, -apple-system, sans-serif" font-size="13" font-weight="600">🚚 AST &amp; ShipStation Tracking</text>
  
  <rect x="804" y="445" width="312" height="48" rx="8" fill="#0F172A" stroke="#334155"/>
  <text x="820" y="475" fill="#E2E8F0" font-family="system-ui, -apple-system, sans-serif" font-size="13" font-weight="600">📩 WhatsApp Consent Opt-In</text>
</svg>
